# xmcd CD database file
#
# Track frame offsets:
#	187
#	12337
#	26685
#	40527
#	52845
#	66802
#	80292
#	92677
#	105840
#	118580
#	132457
#	147172
#	159600
#	173572
#	186897
#
# Disc length: 2667 seconds
#
# Revision: 0
# Processed by: cddbd v1.4PL0 Copyright (c) Steve Scherf et al.
# Submitted via: CDex 1.50beta8
#
DISCID=b50a690f
DTITLE=Little Walter - The Best Of Little Walter
DYEAR=1900
DGENRE=Blues
TTITLE0=My Babe
TTITLE1=Sad Hours
TTITLE2=Your're So Fine
TTITLE3=Last Night
TTITLE4=Blues With A Feeling
TTITLE5=Can't Hold Out Much Longer
TTITLE6=Juke
TTITLE7=Mean Old World
TTITLE8=Off The Wall
TTITLE9=You'd Better Watch Yourself
TTITLE10=Blue Light
TTITLE11=Tell Me Mama
TTITLE12=Juke (alt.)
TTITLE13=Off The Wall (alt.)
TTITLE14=Last Night (first ver.)
EXTD=
EXTT0=
EXTT1=
EXTT2=
EXTT3=
EXTT4=
EXTT5=
EXTT6=
EXTT7=
EXTT8=
EXTT9=
EXTT10=
EXTT11=
EXTT12=
EXTT13=
EXTT14=
PLAYORDER=
